# xmcd
#
# Track frame offsets:
# 150
# 13767
# 27782
# 38410
# 51815
# 67030
# 78462
# 91767
# 103357
# 117027
#
# Disc length: 1754 seconds
#
#
# Revision: 3
# Processed by: cddbd v1.5.1PL2 Copyright (c) Steve Scherf et al.
# Submitted via: FreeRIP 2.944 
#
DISCID=7506d80a
DTITLE=Ricky Van Shelton - Loving Proof
DYEAR=1988
DGENRE=Country
TTITLE0=Swimming Upstream
TTITLE1=I'll Leave This World Loving You
TTITLE2=From A Jack To A King
TTITLE3=Let Me Live With Love (And Die With You)
TTITLE4=Living Proof
TTITLE5=Hole In My Pocket
TTITLE6=The Picture
TTITLE7=Somebody's Back In Town
TTITLE8=Don't Send Me No Angels
TTITLE9=He's Got You
EXTD=
EXTT0=
EXTT1=
EXTT2=
EXTT3=
EXTT4=
EXTT5=
EXTT6=
EXTT7=
EXTT8=
EXTT9=
PLAYORDER=
